<svg width="128" height="128" viewBox="0 0 128 128" fill="none" xmlns="http://www.w3.org/2000/svg">
<path d="M69.7598 127.743C67.8624 127.912 65.9414 128 64 128C28.6538 128 0 99.3462 0 64C0 62.0583 0.0865692 60.1369 0.255859 58.2393L69.7598 127.743ZM89.9795 122.506C87.3057 123.695 84.5356 124.706 81.6836 125.524L2.47461 46.3154C3.29284 43.4635 4.3041 40.6932 5.49316 38.0195L89.9795 122.506ZM105.58 112.651C103.535 114.401 101.379 116.024 99.123 117.508L10.4912 28.876C11.9751 26.62 13.5983 24.4639 15.3477 22.4189L105.58 112.651ZM117.508 99.123C116.024 101.379 114.401 103.535 112.651 105.58L22.4189 15.3477C24.4639 13.5983 26.62 11.9751 28.876 10.4912L117.508 99.123ZM125.524 81.6836C124.706 84.5356 123.695 87.3057 122.506 89.9795L38.0195 5.49316C40.6932 4.3041 43.4635 3.29284 46.3154 2.47461L125.524 81.6836ZM64 0C99.3462 0 128 28.6538 128 64C128 65.9414 127.912 67.8624 127.743 69.7598L58.2393 0.255859C60.1369 0.0865692 62.0583 0 64 0Z" fill="#D9D9D9"/>
</svg>
